<svg width="200" height="200" viewBox="0 0 200 200" fill="none" xmlns="http://www.w3.org/2000/svg">
<g clip-path="url(#clip0)">
<path d="M196.667 166.667H190V163.333C189.983 159.111 187.315 155.354 183.334 153.947V86.0535C187.315 84.646 189.983 80.8894 190 76.6669V73.3336C195.523 73.3336 200 68.8565 200 63.3336C200 57.8107 195.523 53.3336 190 53.3336H187.61L101.747 0.493869C100.676 -0.165294 99.3252 -0.165294 98.2539 0.493869L12.391 53.3336H10.001C4.47807 53.3336 0.00100708 57.8107 0.00100708 63.3336C0.00100708 68.8565 4.47807 73.3336 10.001 73.3336V76.6669C10.0185 80.8894 12.6864 84.646 16.6676 86.0535V153.947C12.6864 155.354 10.0185 159.111 10.001 163.333V166.667H3.33433C1.4935 166.667 0.00100708 168.159 0.00100708 170V196.666C0.00100708 198.507 1.4935 200 3.33433 200H196.667C198.508 200 200 198.507 200 196.666V170C200 168.159 198.508 166.667 196.667 166.667ZM183.334 76.6669C183.334 78.5077 181.841 80.0002 180 80.0002H166.667C164.826 80.0002 163.334 78.5077 163.334 76.6669V73.3336H183.334V76.6669ZM180 160C181.841 160 183.334 161.492 183.334 163.333V166.667H163.334V163.333C163.334 161.492 164.826 160 166.667 160H180ZM170 153.333V86.6668H176.667V153.333H170ZM10.001 66.6669C8.16014 66.6669 6.66765 65.1744 6.66765 63.3336C6.66765 61.4928 8.16014 60.0003 10.001 60.0003H33.3342V53.3336H25.1109L100.001 7.24717L174.89 53.3336H53.3341V60.0003H190C191.841 60.0003 193.334 61.4928 193.334 63.3336C193.334 65.1744 191.841 66.6669 190 66.6669H10.001ZM76.6674 153.947V86.0535C80.6486 84.646 83.3165 80.8894 83.334 76.6669V73.3336H116.667V76.6669C116.685 80.8894 119.353 84.646 123.334 86.0535V153.947C119.353 155.354 116.685 159.111 116.667 163.333V166.667H83.334V163.333C83.3165 159.111 80.6486 155.354 76.6674 153.947ZM73.334 160C75.1749 160 76.6674 161.492 76.6674 163.333V166.667H56.6674V163.333C56.6674 161.492 58.1599 160 60.0008 160H73.334ZM63.3341 153.333V86.6668H70.0007V153.333H63.3341ZM73.334 80.0002H60.0008C58.1599 80.0002 56.6674 78.5077 56.6674 76.6669V73.3336H76.6674V76.6669C76.6674 78.5081 75.1749 80.0002 73.334 80.0002ZM123.334 163.333C123.334 161.492 124.826 160 126.667 160H140C141.841 160 143.334 161.492 143.334 163.333V166.667H123.334V163.333ZM130 153.333V86.6668H136.667V153.333H130ZM140 80.0002H126.667C124.826 80.0002 123.334 78.5077 123.334 76.6669V73.3336H143.334V76.6669C143.334 78.5081 141.841 80.0002 140 80.0002ZM20.0009 80.0002C18.1601 80.0002 16.6676 78.5077 16.6676 76.6669V73.3336H36.6675V76.6669C36.6675 78.5077 35.175 80.0002 33.3342 80.0002H20.0009ZM30.0009 86.6668V153.333H23.3342V86.6668H30.0009ZM16.6676 163.333C16.6676 161.492 18.1601 160 20.0009 160H33.3342C35.175 160 36.6675 161.492 36.6675 163.333V166.667H16.6676V163.333ZM43.3342 193.333H6.66765V173.333H43.3342V193.333ZM36.6675 153.947V86.0535C40.6488 84.646 43.3167 80.8894 43.3342 76.6669V73.3336H50.0008V76.6669C50.0183 80.8894 52.6862 84.646 56.6674 86.0535V153.947C52.6862 155.354 50.0183 159.111 50.0008 163.333V166.667H43.3342V163.333C43.3167 159.111 40.6488 155.354 36.6675 153.947ZM150 193.333H50.0008V186.666H130V180H50.0008V173.333H150V193.333ZM143.334 153.947V86.0535C147.315 84.646 149.983 80.8894 150 76.6669V73.3336H156.667V76.6669C156.685 80.8894 159.352 84.646 163.334 86.0535V153.947C159.352 155.354 156.685 159.111 156.667 163.333V166.667H150V163.333C149.983 159.111 147.315 155.354 143.334 153.947ZM193.334 193.333H156.667V173.333H193.334V193.333Z" fill="#364C71"/>
<path d="M143.333 180H136.667V186.667H143.333V180Z" fill="#364C71"/>
<path d="M46.6669 53.3339H40.0002V60.0006H46.6669V53.3339Z" fill="#364C71"/>
<path d="M100 20.0007C92.6363 20.0007 86.6667 25.9703 86.6667 33.334C86.6667 40.6977 92.6363 46.6673 100 46.6673C107.364 46.6673 113.333 40.6977 113.333 33.334C113.333 25.9703 107.364 20.0007 100 20.0007ZM100 40.0007C96.3179 40.0007 93.3334 37.0161 93.3334 33.334C93.3334 29.652 96.3179 26.6674 100 26.6674C103.682 26.6674 106.667 29.652 106.667 33.334C106.667 37.0161 103.682 40.0007 100 40.0007Z" fill="#364C71"/>
</g>
<defs>
<clipPath id="clip0">
<rect width="200" height="200" fill="white"/>
</clipPath>
</defs>
</svg>
