<svg width="200" height="200" viewBox="0 0 200 200" fill="none" xmlns="http://www.w3.org/2000/svg">
<path d="M140.625 187.5H28.125C25.6386 187.5 23.254 186.512 21.4959 184.754C19.7377 182.996 18.75 180.611 18.75 178.125V21.875C18.75 19.3886 19.7377 17.004 21.4959 15.2459C23.254 13.4877 25.6386 12.5 28.125 12.5H125V28.125C125 30.6114 125.988 32.996 127.746 34.7541C129.504 36.5123 131.889 37.5 134.375 37.5H150V62.5H156.25V34.375C156.25 33.5463 155.92 32.7515 155.334 32.1656L130.334 7.16562C129.748 6.57953 128.954 6.25018 128.125 6.25H28.125C23.9825 6.25496 20.0111 7.90276 17.0819 10.8319C14.1528 13.7611 12.505 17.7325 12.5 21.875V178.125C12.505 182.267 14.1528 186.239 17.0819 189.168C20.0111 192.097 23.9825 193.745 28.125 193.75H140.625C144.431 193.752 148.106 192.362 150.959 189.844L146.825 185.156C145.113 186.666 142.908 187.5 140.625 187.5V187.5ZM131.25 28.125V16.9188L145.581 31.25H134.375C133.546 31.25 132.751 30.9208 132.165 30.3347C131.579 29.7487 131.25 28.9538 131.25 28.125Z" fill="#364C71"/>
<path d="M178.125 143.75H171.875C171.877 143.136 171.691 142.537 171.344 142.031L167.188 135.781C166.162 134.246 165.618 132.44 165.625 130.594V121.844C165.672 117.021 167.272 112.342 170.187 108.5C172.516 105.312 174.057 101.618 174.683 97.7202C175.31 93.8224 175.004 89.8316 173.792 86.0746C172.579 82.3176 170.494 78.9012 167.707 76.105C164.92 73.3088 161.511 71.2124 157.758 69.9874C154.005 68.7624 150.015 68.4435 146.115 69.057C142.215 69.6705 138.516 71.1989 135.32 73.517C132.125 75.8351 129.524 78.877 127.73 82.3938C125.936 85.9106 125.001 89.8022 125 93.75C124.977 99.2459 126.792 104.592 130.156 108.937C132.933 112.652 134.415 117.175 134.375 121.812V130.594C134.382 132.44 133.838 134.246 132.812 135.781L128.656 142.031C128.309 142.537 128.123 143.136 128.125 143.75H121.875C119.391 143.757 117.011 144.748 115.254 146.504C113.498 148.261 112.507 150.641 112.5 153.125V165.625C112.5 166.454 112.829 167.249 113.415 167.835C114.001 168.421 114.796 168.75 115.625 168.75H118.75V178.125C118.75 178.954 119.079 179.749 119.665 180.335C120.251 180.921 121.046 181.25 121.875 181.25H178.125C178.954 181.25 179.749 180.921 180.335 180.335C180.921 179.749 181.25 178.954 181.25 178.125V168.75H184.375C185.204 168.75 185.999 168.421 186.585 167.835C187.171 167.249 187.5 166.454 187.5 165.625V153.125C187.493 150.641 186.502 148.261 184.746 146.504C182.989 144.748 180.609 143.757 178.125 143.75V143.75ZM131.25 93.75C131.249 90.7898 131.949 87.8714 133.292 85.2336C134.635 82.5958 136.584 80.3136 138.979 78.5736C141.374 76.8337 144.147 75.6855 147.07 75.2229C149.994 74.7604 152.986 74.9968 155.801 75.9126C158.616 76.8284 161.174 78.3977 163.266 80.4921C165.358 82.5865 166.924 85.1464 167.837 87.9624C168.749 90.7784 168.982 93.7704 168.516 96.6937C168.05 99.617 166.899 102.388 165.156 104.781C161.454 109.704 159.428 115.684 159.375 121.844V130.594C159.37 133.676 160.284 136.69 162 139.25L165 143.75H135L138 139.25C139.716 136.69 140.63 133.676 140.625 130.594V121.812C140.661 115.809 138.729 109.958 135.125 105.156C132.606 101.888 131.243 97.8763 131.25 93.75V93.75ZM175 175H125V168.75H175V175ZM181.25 162.5H118.75V153.125C118.75 152.296 119.079 151.501 119.665 150.915C120.251 150.329 121.046 150 121.875 150H178.125C178.954 150 179.749 150.329 180.335 150.915C180.921 151.501 181.25 152.296 181.25 153.125V162.5Z" fill="#364C71"/>
<path d="M62.5 175C68.6807 175 74.7225 173.167 79.8616 169.733C85.0006 166.3 89.006 161.419 91.3712 155.709C93.7365 149.999 94.3553 143.715 93.1495 137.653C91.9437 131.592 88.9675 126.023 84.5971 121.653C80.2267 117.283 74.6585 114.306 68.5966 113.1C62.5347 111.895 56.2513 112.514 50.5411 114.879C44.831 117.244 39.9504 121.249 36.5166 126.388C33.0828 131.527 31.25 137.569 31.25 143.75C31.2591 152.035 34.5544 159.979 40.413 165.837C46.2715 171.696 54.2148 174.991 62.5 175V175ZM62.5 118.75C67.4445 118.75 72.278 120.216 76.3892 122.963C80.5005 125.71 83.7048 129.615 85.597 134.183C87.4892 138.751 87.9843 143.778 87.0196 148.627C86.055 153.477 83.674 157.931 80.1777 161.428C76.6814 164.924 72.2268 167.305 67.3773 168.27C62.5277 169.234 57.5011 168.739 52.9329 166.847C48.3648 164.955 44.4603 161.75 41.7133 157.639C38.9662 153.528 37.5 148.695 37.5 143.75C37.5074 137.122 40.1438 130.767 44.8306 126.081C49.5173 121.394 55.8719 118.757 62.5 118.75V118.75Z" fill="#364C71"/>
<path d="M59.375 156.25C60.2037 156.25 60.9985 155.92 61.5844 155.334L80.3344 136.584L75.9156 132.166L59.375 148.706L52.2094 141.541L47.7906 145.959L57.1656 155.334C57.7515 155.92 58.5463 156.25 59.375 156.25V156.25Z" fill="#364C71"/>
<path d="M87.5 53.125H81.25C80.4212 53.125 79.6263 52.7958 79.0403 52.2097C78.4542 51.6237 78.125 50.8288 78.125 50H71.875C71.875 52.4864 72.8627 54.871 74.6209 56.6291C76.379 58.3873 78.7636 59.375 81.25 59.375V62.5H87.5V59.375C89.9864 59.375 92.371 58.3873 94.1291 56.6291C95.8873 54.871 96.875 52.4864 96.875 50C96.875 47.5136 95.8873 45.129 94.1291 43.3709C92.371 41.6127 89.9864 40.625 87.5 40.625H81.25C80.4212 40.625 79.6263 40.2958 79.0403 39.7097C78.4542 39.1237 78.125 38.3288 78.125 37.5C78.125 36.6712 78.4542 35.8763 79.0403 35.2903C79.6263 34.7042 80.4212 34.375 81.25 34.375H87.5C88.3288 34.375 89.1237 34.7042 89.7097 35.2903C90.2958 35.8763 90.625 36.6712 90.625 37.5H96.875C96.875 35.0136 95.8873 32.629 94.1291 30.8709C92.371 29.1127 89.9864 28.125 87.5 28.125V25H81.25V28.125C78.7636 28.125 76.379 29.1127 74.6209 30.8709C72.8627 32.629 71.875 35.0136 71.875 37.5C71.875 39.9864 72.8627 42.371 74.6209 44.1291C76.379 45.8873 78.7636 46.875 81.25 46.875H87.5C88.3288 46.875 89.1237 47.2042 89.7097 47.7903C90.2958 48.3763 90.625 49.1712 90.625 50C90.625 50.8288 90.2958 51.6237 89.7097 52.2097C89.1237 52.7958 88.3288 53.125 87.5 53.125Z" fill="#364C71"/>
<path d="M103.125 40.625H109.375V46.875H103.125V40.625Z" fill="#364C71"/>
<path d="M59.375 40.625H65.625V46.875H59.375V40.625Z" fill="#364C71"/>
<path d="M31.25 68.75H43.75V75H31.25V68.75Z" fill="#364C71"/>
<path d="M50 68.75H125V75H50V68.75Z" fill="#364C71"/>
<path d="M31.25 81.25H118.75V87.5H31.25V81.25Z" fill="#364C71"/>
<path d="M31.25 93.75H118.75V100H31.25V93.75Z" fill="#364C71"/>
<path d="M31.25 106.25H43.75V112.5H31.25V106.25Z" fill="#364C71"/>
<path d="M81.25 106.25H118.75V112.5H81.25V106.25Z" fill="#364C71"/>
<path d="M96.875 118.75H121.875V125H96.875V118.75Z" fill="#364C71"/>
</svg>
