<svg width="200" height="200" viewBox="0 0 200 200" fill="none" xmlns="http://www.w3.org/2000/svg">
<path d="M181.25 0H18.75C8.39453 0 0 8.39453 0 18.75V181.25C0 191.605 8.39453 200 18.75 200H181.25C191.605 200 200 191.605 200 181.25V18.75C200 8.39453 191.605 0 181.25 0ZM187.5 122.438L160.687 95.625C158.25 93.2016 154.313 93.2016 151.875 95.625L118.75 128.688L79.4375 89.375C76.9996 86.9516 73.0629 86.9516 70.625 89.375L12.5 147.438V18.75C12.5 15.298 15.298 12.5 18.75 12.5H181.25C184.702 12.5 187.5 15.298 187.5 18.75V122.438Z" fill="#364C71"/>
<path d="M112.5 31.25C98.693 31.25 87.5 42.443 87.5 56.25C87.5 70.057 98.693 81.25 112.5 81.25C126.307 81.25 137.5 70.057 137.5 56.25C137.5 42.443 126.307 31.25 112.5 31.25ZM112.5 68.75C105.596 68.75 100 63.1535 100 56.25C100 49.3465 105.596 43.75 112.5 43.75C119.404 43.75 125 49.3465 125 56.25C125 63.1535 119.404 68.75 112.5 68.75Z" fill="#364C71"/>
</svg>
