<svg width="284" height="284" viewBox="0 0 284 284" fill="none" xmlns="http://www.w3.org/2000/svg">
<g clip-path="url(#clip0)">
<path d="M249.581 108.159C240.543 99.122 228.523 94.1458 215.74 94.1458L163.036 94.1458C165.331 95.8786 167.649 97.5854 169.707 99.644C175.384 105.32 179.843 111.985 182.912 119.143L215.74 119.143C221.847 119.147 227.588 121.521 231.903 125.837C240.815 134.749 240.816 149.25 231.903 158.163C227.587 162.479 221.847 164.852 215.74 164.856L156.648 164.857C144.434 164.848 133.796 154.218 133.787 142.004L108.79 142.022C108.794 154.792 113.774 166.808 122.807 175.841C131.845 184.878 143.864 189.854 156.648 189.854H215.741C228.524 189.854 240.544 184.878 249.581 175.841C268.243 157.179 268.243 126.821 249.581 108.159V108.159Z" fill="#364C71"/>
<path d="M100.778 164.857H68.2596C62.1527 164.853 56.4125 162.479 52.0968 158.163C43.1845 149.251 43.1845 134.75 52.0968 125.837C56.4125 121.522 62.1527 119.148 68.2596 119.144L127.352 119.144C139.566 119.153 150.205 129.782 150.213 141.996L175.211 141.979C175.198 116.433 152.919 94.1466 127.352 94.1463L68.2596 94.1461C55.476 94.1458 43.4566 99.122 34.4193 108.159C15.7575 126.821 15.7578 157.179 34.4193 175.84C43.4566 184.877 55.4763 189.853 68.2599 189.854L120.264 189.854C118.111 188.21 115.917 186.627 113.969 184.679C108.205 178.915 103.775 172.181 100.778 164.857Z" fill="#364C71"/>
</g>
<defs>
<clipPath id="clip0">
<rect width="200" height="200" fill="white" transform="translate(142 0.578644) rotate(45)"/>
</clipPath>
</defs>
</svg>
