<svg width="200" height="200" viewBox="0 0 200 200" fill="none" xmlns="http://www.w3.org/2000/svg">
<g clip-path="url(#clip0)">
<path d="M179.167 183.333H20.8333C9.34999 183.333 -7.62939e-06 173.983 -7.62939e-06 162.5V54.1667C-7.62939e-06 42.6833 9.34999 33.3333 20.8333 33.3333H70.8333C73.1333 33.3333 75 35.2 75 37.5C75 39.8 73.1333 41.6667 70.8333 41.6667H20.8333C13.9417 41.6667 8.33333 47.275 8.33333 54.1667V162.5C8.33333 169.392 13.9417 175 20.8333 175H179.167C186.058 175 191.667 169.392 191.667 162.5V54.1667C191.667 47.275 186.058 41.6667 179.167 41.6667H129.167C126.867 41.6667 125 39.8 125 37.5C125 35.2 126.867 33.3333 129.167 33.3333H179.167C190.65 33.3333 200 42.6833 200 54.1667V162.5C200 173.983 190.65 183.333 179.167 183.333Z" fill="#364C71"/>
<path d="M62.5 116.667C51.0167 116.667 41.6667 107.317 41.6667 95.8333C41.6667 84.35 51.0167 75 62.5 75C73.9833 75 83.3333 84.35 83.3333 95.8333C83.3333 107.317 73.9833 116.667 62.5 116.667ZM62.5 83.3333C55.6083 83.3333 50 88.9417 50 95.8333C50 102.725 55.6083 108.333 62.5 108.333C69.3917 108.333 75 102.725 75 95.8333C75 88.9417 69.3917 83.3333 62.5 83.3333Z" fill="#364C71"/>
<path d="M95.8333 158.333C93.5333 158.333 91.6667 156.467 91.6667 154.167V145.833C91.6667 138.942 86.0583 133.333 79.1667 133.333H45.8333C38.9417 133.333 33.3333 138.942 33.3333 145.833V154.167C33.3333 156.467 31.4667 158.333 29.1667 158.333C26.8667 158.333 25 156.467 25 154.167V145.833C25 134.35 34.35 125 45.8333 125H79.1667C90.65 125 100 134.35 100 145.833V154.167C100 156.467 98.1333 158.333 95.8333 158.333Z" fill="#364C71"/>
<path d="M170.833 91.6667H120.833C118.533 91.6667 116.667 89.8 116.667 87.5C116.667 85.2 118.533 83.3333 120.833 83.3333H170.833C173.133 83.3333 175 85.2 175 87.5C175 89.8 173.133 91.6667 170.833 91.6667Z" fill="#364C71"/>
<path d="M170.833 125H120.833C118.533 125 116.667 123.133 116.667 120.833C116.667 118.533 118.533 116.667 120.833 116.667H170.833C173.133 116.667 175 118.533 175 120.833C175 123.133 173.133 125 170.833 125Z" fill="#364C71"/>
<path d="M170.833 158.333H120.833C118.533 158.333 116.667 156.467 116.667 154.167C116.667 151.867 118.533 150 120.833 150H170.833C173.133 150 175 151.867 175 154.167C175 156.467 173.133 158.333 170.833 158.333Z" fill="#364C71"/>
<path d="M120.833 58.3333H79.1667C72.275 58.3333 66.6667 52.725 66.6667 45.8333V29.1667C66.6667 22.275 72.275 16.6667 79.1667 16.6667H120.833C127.725 16.6667 133.333 22.275 133.333 29.1667V45.8333C133.333 52.725 127.725 58.3333 120.833 58.3333ZM79.1667 25C76.8667 25 75 26.8667 75 29.1667V45.8333C75 48.1333 76.8667 50 79.1667 50H120.833C123.133 50 125 48.1333 125 45.8333V29.1667C125 26.8667 123.133 25 120.833 25H79.1667Z" fill="#364C71"/>
</g>
<defs>
<clipPath id="clip0">
<rect width="200" height="200" fill="white"/>
</clipPath>
</defs>
</svg>
